<svg width="34" height="20" viewBox="0 0 34 20" fill="none" xmlns="http://www.w3.org/2000/svg">
<path d="M17.0212 2.83333C23.7518 2.83333 28.4438 7.10033 30.4852 9.401C28.5005 12.0034 23.8085 17 17.0212 17C10.7596 17 5.78708 11.9907 3.59408 9.34009C5.70917 7.00683 10.4182 2.83333 17.0212 2.83333ZM17.0212 0C6.2985 0 0 9.28058 0 9.28058C0 9.28058 6.84958 19.8333 17.0212 19.8333C27.9763 19.8333 34 9.28058 34 9.28058C34 9.28058 27.9211 0 17.0212 0ZM17 4.25C13.8692 4.25 11.3333 6.78725 11.3333 9.91667C11.3333 13.0461 13.8692 15.5833 17 15.5833C20.1294 15.5833 22.6667 13.0461 22.6667 9.91667C22.6667 6.78725 20.1294 4.25 17 4.25ZM16.9943 9.91525C16.1953 10.7143 14.8991 10.7143 14.0987 9.91525C13.2982 9.11625 13.2982 7.81858 14.0987 7.01958C14.8977 6.22058 16.1939 6.22058 16.9943 7.01958C17.7948 7.81858 17.7948 9.11483 16.9943 9.91525Z" fill="#747474"/>
</svg>
