<svg width="35" height="32" viewBox="0 0 35 32" fill="none" xmlns="http://www.w3.org/2000/svg">
<rect width="35" height="32" fill="white"/>
<path d="M26.25 13.3333V8C26.25 3.58267 22.3315 0 17.5 0C12.6685 0 8.75 3.58267 8.75 8V13.3333H4.375V32H30.625V13.3333H26.25ZM18.9583 23.6307V26.6667H16.0417V23.6307C15.174 23.168 14.5833 22.3187 14.5833 21.3333C14.5833 19.8613 15.89 18.6667 17.5 18.6667C19.11 18.6667 20.4167 19.8613 20.4167 21.3333C20.4167 22.3173 19.8275 23.168 18.9583 23.6307ZM11.6667 13.3333V8C11.6667 5.05867 14.2829 2.66667 17.5 2.66667C20.7156 2.66667 23.3333 5.05867 23.3333 8V13.3333H11.6667Z" fill="#747474"/>
</svg>
